<mxfile host="app.diagrams.net" modified="2021-02-02T07:44:02.458Z" agent="5.0 (Windows NT 10.0; Win64; x64) AppleWebKit/537.36 (KHTML, like Gecko) Chrome/87.0.4280.141 Safari/537.36" etag="tnJuZdXZPF49HFwlsDKq" version="14.2.6" type="github" pages="3">
  <diagram id="xagcrxhnyBan9iE-X-BX" name="Page-1">
    <mxGraphModel dx="1038" dy="580" grid="1" gridSize="10" guides="1" tooltips="1" connect="1" arrows="1" fold="1" page="1" pageScale="1" pageWidth="827" pageHeight="1169" math="0" shadow="0">
      <root>
        <mxCell id="0" />
        <mxCell id="1" parent="0" />
        <mxCell id="c3HWRk6y3NSjukakayOv-1" value="515" style="rounded=0;whiteSpace=wrap;html=1;" parent="1" vertex="1">
          <mxGeometry x="110" y="260" width="80" height="40" as="geometry" />
        </mxCell>
        <mxCell id="c3HWRk6y3NSjukakayOv-2" value="EHR" style="rounded=0;whiteSpace=wrap;html=1;" parent="1" vertex="1">
          <mxGeometry x="320" y="120" width="80" height="40" as="geometry" />
        </mxCell>
        <mxCell id="c3HWRk6y3NSjukakayOv-3" value="EMR" style="rounded=0;whiteSpace=wrap;html=1;" parent="1" vertex="1">
          <mxGeometry x="320" y="210" width="80" height="40" as="geometry" />
        </mxCell>
        <mxCell id="c3HWRk6y3NSjukakayOv-14" style="edgeStyle=orthogonalEdgeStyle;rounded=0;orthogonalLoop=1;jettySize=auto;html=1;exitX=1;exitY=0.5;exitDx=0;exitDy=0;" parent="1" source="c3HWRk6y3NSjukakayOv-4" target="c3HWRk6y3NSjukakayOv-13" edge="1">
          <mxGeometry relative="1" as="geometry" />
        </mxCell>
        <mxCell id="c3HWRk6y3NSjukakayOv-4" value="死因" style="rounded=0;whiteSpace=wrap;html=1;" parent="1" vertex="1">
          <mxGeometry x="320" y="320" width="80" height="40" as="geometry" />
        </mxCell>
        <mxCell id="c3HWRk6y3NSjukakayOv-16" style="edgeStyle=orthogonalEdgeStyle;rounded=0;orthogonalLoop=1;jettySize=auto;html=1;exitX=1;exitY=0.5;exitDx=0;exitDy=0;entryX=0;entryY=0.5;entryDx=0;entryDy=0;" parent="1" source="c3HWRk6y3NSjukakayOv-5" target="c3HWRk6y3NSjukakayOv-15" edge="1">
          <mxGeometry relative="1" as="geometry" />
        </mxCell>
        <mxCell id="c3HWRk6y3NSjukakayOv-5" value="医保" style="rounded=0;whiteSpace=wrap;html=1;" parent="1" vertex="1">
          <mxGeometry x="320" y="400" width="80" height="40" as="geometry" />
        </mxCell>
        <mxCell id="c3HWRk6y3NSjukakayOv-6" value="体检" style="rounded=0;whiteSpace=wrap;html=1;" parent="1" vertex="1">
          <mxGeometry x="320" y="480" width="80" height="40" as="geometry" />
        </mxCell>
        <mxCell id="c3HWRk6y3NSjukakayOv-7" value="中小学生" style="rounded=0;whiteSpace=wrap;html=1;" parent="1" vertex="1">
          <mxGeometry x="320" y="560" width="80" height="40" as="geometry" />
        </mxCell>
        <mxCell id="c3HWRk6y3NSjukakayOv-9" value="EHR_PIR" style="rounded=0;whiteSpace=wrap;html=1;" parent="1" vertex="1">
          <mxGeometry x="490" y="120" width="80" height="40" as="geometry" />
        </mxCell>
        <mxCell id="c3HWRk6y3NSjukakayOv-10" value="EMR_ICH" style="rounded=0;whiteSpace=wrap;html=1;" parent="1" vertex="1">
          <mxGeometry x="490" y="190" width="80" height="40" as="geometry" />
        </mxCell>
        <mxCell id="c3HWRk6y3NSjukakayOv-11" value="门诊" style="rounded=0;whiteSpace=wrap;html=1;" parent="1" vertex="1">
          <mxGeometry x="490" y="240" width="80" height="40" as="geometry" />
        </mxCell>
        <mxCell id="c3HWRk6y3NSjukakayOv-12" value="EMR_PHYSICAL_REPORT" style="rounded=0;whiteSpace=wrap;html=1;" parent="1" vertex="1">
          <mxGeometry x="490" y="480" width="160" height="40" as="geometry" />
        </mxCell>
        <mxCell id="c3HWRk6y3NSjukakayOv-13" value="死因" style="rounded=0;whiteSpace=wrap;html=1;" parent="1" vertex="1">
          <mxGeometry x="490" y="320" width="80" height="40" as="geometry" />
        </mxCell>
        <mxCell id="c3HWRk6y3NSjukakayOv-15" value="JBXX" style="rounded=0;whiteSpace=wrap;html=1;" parent="1" vertex="1">
          <mxGeometry x="490" y="400" width="80" height="40" as="geometry" />
        </mxCell>
      </root>
    </mxGraphModel>
  </diagram>
  <diagram id="n7D8QiC2p1QJtrz3l86_" name="Page-2">
    <mxGraphModel dx="1038" dy="580" grid="1" gridSize="10" guides="1" tooltips="1" connect="1" arrows="1" fold="1" page="1" pageScale="1" pageWidth="827" pageHeight="1169" math="0" shadow="0">
      <root>
        <mxCell id="L7cZjmXhpZYvMnuUi8Xo-0" />
        <mxCell id="L7cZjmXhpZYvMnuUi8Xo-1" parent="L7cZjmXhpZYvMnuUi8Xo-0" />
        <mxCell id="YD2JQhsTMEuuVqjq4s3G-0" value="" style="rounded=0;whiteSpace=wrap;html=1;fillColor=#fff2cc;strokeColor=#d6b656;" parent="L7cZjmXhpZYvMnuUi8Xo-1" vertex="1">
          <mxGeometry x="30" y="70" width="600" height="390" as="geometry" />
        </mxCell>
        <mxCell id="L7cZjmXhpZYvMnuUi8Xo-12" style="edgeStyle=orthogonalEdgeStyle;rounded=0;orthogonalLoop=1;jettySize=auto;html=1;exitX=1;exitY=0.5;exitDx=0;exitDy=0;entryX=0.5;entryY=0;entryDx=0;entryDy=0;entryPerimeter=0;" parent="L7cZjmXhpZYvMnuUi8Xo-1" source="L7cZjmXhpZYvMnuUi8Xo-2" target="L7cZjmXhpZYvMnuUi8Xo-11" edge="1">
          <mxGeometry relative="1" as="geometry" />
        </mxCell>
        <mxCell id="L7cZjmXhpZYvMnuUi8Xo-13" value="备份" style="edgeLabel;html=1;align=center;verticalAlign=middle;resizable=0;points=[];" parent="L7cZjmXhpZYvMnuUi8Xo-12" vertex="1" connectable="0">
          <mxGeometry x="-0.0735" y="3" relative="1" as="geometry">
            <mxPoint as="offset" />
          </mxGeometry>
        </mxCell>
        <mxCell id="L7cZjmXhpZYvMnuUi8Xo-2" value="浪潮" style="rounded=0;whiteSpace=wrap;html=1;" parent="L7cZjmXhpZYvMnuUi8Xo-1" vertex="1">
          <mxGeometry x="160" y="200" width="290" height="110" as="geometry" />
        </mxCell>
        <mxCell id="L7cZjmXhpZYvMnuUi8Xo-3" value="ORACLE:&lt;br&gt;2016（500万）" style="rounded=0;whiteSpace=wrap;html=1;" parent="L7cZjmXhpZYvMnuUi8Xo-1" vertex="1">
          <mxGeometry x="350" y="215" width="80" height="80" as="geometry" />
        </mxCell>
        <mxCell id="L7cZjmXhpZYvMnuUi8Xo-27" style="edgeStyle=orthogonalEdgeStyle;rounded=0;orthogonalLoop=1;jettySize=auto;html=1;exitX=0.75;exitY=0;exitDx=0;exitDy=0;entryX=0.855;entryY=0;entryDx=0;entryDy=4.35;entryPerimeter=0;dashed=1;" parent="L7cZjmXhpZYvMnuUi8Xo-1" source="L7cZjmXhpZYvMnuUi8Xo-4" target="L7cZjmXhpZYvMnuUi8Xo-11" edge="1">
          <mxGeometry relative="1" as="geometry">
            <Array as="points">
              <mxPoint x="250" y="170" />
              <mxPoint x="593" y="170" />
            </Array>
          </mxGeometry>
        </mxCell>
        <mxCell id="L7cZjmXhpZYvMnuUi8Xo-4" value="ORACLE:&lt;br&gt;2018" style="rounded=0;whiteSpace=wrap;html=1;" parent="L7cZjmXhpZYvMnuUi8Xo-1" vertex="1">
          <mxGeometry x="190" y="215" width="80" height="80" as="geometry" />
        </mxCell>
        <mxCell id="L7cZjmXhpZYvMnuUi8Xo-5" value="" style="rounded=0;whiteSpace=wrap;html=1;fillColor=#d5e8d4;strokeColor=#82b366;" parent="L7cZjmXhpZYvMnuUi8Xo-1" vertex="1">
          <mxGeometry x="30" y="580" width="590" height="115" as="geometry" />
        </mxCell>
        <mxCell id="L7cZjmXhpZYvMnuUi8Xo-6" value="研究院" style="text;html=1;strokeColor=none;fillColor=none;align=center;verticalAlign=middle;whiteSpace=wrap;rounded=0;" parent="L7cZjmXhpZYvMnuUi8Xo-1" vertex="1">
          <mxGeometry x="30" y="565" width="40" height="20" as="geometry" />
        </mxCell>
        <mxCell id="L7cZjmXhpZYvMnuUi8Xo-17" style="edgeStyle=orthogonalEdgeStyle;rounded=0;orthogonalLoop=1;jettySize=auto;html=1;exitX=0.5;exitY=0;exitDx=0;exitDy=0;" parent="L7cZjmXhpZYvMnuUi8Xo-1" source="L7cZjmXhpZYvMnuUi8Xo-7" target="L7cZjmXhpZYvMnuUi8Xo-8" edge="1">
          <mxGeometry relative="1" as="geometry" />
        </mxCell>
        <mxCell id="L7cZjmXhpZYvMnuUi8Xo-7" value="VPN" style="rounded=0;whiteSpace=wrap;html=1;" parent="L7cZjmXhpZYvMnuUi8Xo-1" vertex="1">
          <mxGeometry x="260" y="430" width="90" height="50" as="geometry" />
        </mxCell>
        <mxCell id="L7cZjmXhpZYvMnuUi8Xo-10" style="edgeStyle=orthogonalEdgeStyle;rounded=0;orthogonalLoop=1;jettySize=auto;html=1;exitX=0.5;exitY=0;exitDx=0;exitDy=0;" parent="L7cZjmXhpZYvMnuUi8Xo-1" source="L7cZjmXhpZYvMnuUi8Xo-8" target="L7cZjmXhpZYvMnuUi8Xo-2" edge="1">
          <mxGeometry relative="1" as="geometry" />
        </mxCell>
        <mxCell id="L7cZjmXhpZYvMnuUi8Xo-8" value="R:96\99\100（性能差）&lt;br&gt;web平台:97" style="rounded=0;whiteSpace=wrap;html=1;" parent="L7cZjmXhpZYvMnuUi8Xo-1" vertex="1">
          <mxGeometry x="180" y="330" width="250" height="50" as="geometry" />
        </mxCell>
        <mxCell id="L7cZjmXhpZYvMnuUi8Xo-32" style="edgeStyle=orthogonalEdgeStyle;rounded=0;orthogonalLoop=1;jettySize=auto;html=1;exitX=1;exitY=0.5;exitDx=0;exitDy=0;exitPerimeter=0;" parent="L7cZjmXhpZYvMnuUi8Xo-1" target="L7cZjmXhpZYvMnuUi8Xo-30" edge="1">
          <mxGeometry relative="1" as="geometry">
            <mxPoint x="610" y="550" as="sourcePoint" />
          </mxGeometry>
        </mxCell>
        <mxCell id="L7cZjmXhpZYvMnuUi8Xo-11" value="GP集群&lt;br&gt;（产生结果）" style="shape=cylinder3;whiteSpace=wrap;html=1;boundedLbl=1;backgroundOutline=1;size=15;" parent="L7cZjmXhpZYvMnuUi8Xo-1" vertex="1">
          <mxGeometry x="490" y="515" width="120" height="90" as="geometry" />
        </mxCell>
        <mxCell id="L7cZjmXhpZYvMnuUi8Xo-15" style="edgeStyle=orthogonalEdgeStyle;rounded=0;orthogonalLoop=1;jettySize=auto;html=1;exitX=0.5;exitY=0;exitDx=0;exitDy=0;exitPerimeter=0;entryX=0.5;entryY=1;entryDx=0;entryDy=0;" parent="L7cZjmXhpZYvMnuUi8Xo-1" source="L7cZjmXhpZYvMnuUi8Xo-14" target="L7cZjmXhpZYvMnuUi8Xo-7" edge="1">
          <mxGeometry relative="1" as="geometry" />
        </mxCell>
        <mxCell id="L7cZjmXhpZYvMnuUi8Xo-16" style="edgeStyle=orthogonalEdgeStyle;rounded=0;orthogonalLoop=1;jettySize=auto;html=1;entryX=0.5;entryY=1;entryDx=0;entryDy=0;entryPerimeter=0;" parent="L7cZjmXhpZYvMnuUi8Xo-1" source="L7cZjmXhpZYvMnuUi8Xo-14" target="L7cZjmXhpZYvMnuUi8Xo-11" edge="1">
          <mxGeometry relative="1" as="geometry">
            <mxPoint x="550" y="595" as="targetPoint" />
          </mxGeometry>
        </mxCell>
        <mxCell id="L7cZjmXhpZYvMnuUi8Xo-28" value="本地的R服务器" style="edgeLabel;html=1;align=center;verticalAlign=middle;resizable=0;points=[];" parent="L7cZjmXhpZYvMnuUi8Xo-16" vertex="1" connectable="0">
          <mxGeometry x="0.0109" y="-5" relative="1" as="geometry">
            <mxPoint as="offset" />
          </mxGeometry>
        </mxCell>
        <mxCell id="L7cZjmXhpZYvMnuUi8Xo-26" value="需求" style="edgeStyle=orthogonalEdgeStyle;rounded=0;orthogonalLoop=1;jettySize=auto;html=1;exitX=0;exitY=0.3333333333333333;exitDx=0;exitDy=0;exitPerimeter=0;entryX=0.5;entryY=0.5;entryDx=0;entryDy=0;entryPerimeter=0;" parent="L7cZjmXhpZYvMnuUi8Xo-1" source="L7cZjmXhpZYvMnuUi8Xo-14" target="L7cZjmXhpZYvMnuUi8Xo-24" edge="1">
          <mxGeometry relative="1" as="geometry" />
        </mxCell>
        <mxCell id="L7cZjmXhpZYvMnuUi8Xo-14" value="学生" style="shape=umlActor;verticalLabelPosition=bottom;verticalAlign=top;html=1;outlineConnect=0;" parent="L7cZjmXhpZYvMnuUi8Xo-1" vertex="1">
          <mxGeometry x="290" y="610" width="30" height="60" as="geometry" />
        </mxCell>
        <mxCell id="L7cZjmXhpZYvMnuUi8Xo-22" style="edgeStyle=orthogonalEdgeStyle;rounded=0;orthogonalLoop=1;jettySize=auto;html=1;exitX=0.25;exitY=1;exitDx=0;exitDy=0;entryX=0.5;entryY=0;entryDx=0;entryDy=0;shape=flexArrow;" parent="L7cZjmXhpZYvMnuUi8Xo-1" source="L7cZjmXhpZYvMnuUi8Xo-18" target="L7cZjmXhpZYvMnuUi8Xo-4" edge="1">
          <mxGeometry relative="1" as="geometry" />
        </mxCell>
        <mxCell id="L7cZjmXhpZYvMnuUi8Xo-18" value="2018版全省数据库（EMR\EHR）&lt;br&gt;医嘱信息" style="rounded=0;whiteSpace=wrap;html=1;" parent="L7cZjmXhpZYvMnuUi8Xo-1" vertex="1">
          <mxGeometry x="160" y="90" width="290" height="60" as="geometry" />
        </mxCell>
        <mxCell id="L7cZjmXhpZYvMnuUi8Xo-21" style="edgeStyle=orthogonalEdgeStyle;rounded=0;orthogonalLoop=1;jettySize=auto;html=1;entryX=0;entryY=0.5;entryDx=0;entryDy=0;" parent="L7cZjmXhpZYvMnuUi8Xo-1" source="L7cZjmXhpZYvMnuUi8Xo-19" target="L7cZjmXhpZYvMnuUi8Xo-18" edge="1">
          <mxGeometry relative="1" as="geometry">
            <Array as="points">
              <mxPoint x="80" y="120" />
            </Array>
          </mxGeometry>
        </mxCell>
        <mxCell id="L7cZjmXhpZYvMnuUi8Xo-29" value="管理员" style="edgeLabel;html=1;align=center;verticalAlign=middle;resizable=0;points=[];" parent="L7cZjmXhpZYvMnuUi8Xo-21" vertex="1" connectable="0">
          <mxGeometry x="-0.1845" y="2" relative="1" as="geometry">
            <mxPoint as="offset" />
          </mxGeometry>
        </mxCell>
        <mxCell id="L7cZjmXhpZYvMnuUi8Xo-19" value="堡垒机" style="ellipse;whiteSpace=wrap;html=1;aspect=fixed;" parent="L7cZjmXhpZYvMnuUi8Xo-1" vertex="1">
          <mxGeometry x="50" y="325" width="70" height="70" as="geometry" />
        </mxCell>
        <mxCell id="L7cZjmXhpZYvMnuUi8Xo-25" style="edgeStyle=orthogonalEdgeStyle;rounded=0;orthogonalLoop=1;jettySize=auto;html=1;" parent="L7cZjmXhpZYvMnuUi8Xo-1" source="L7cZjmXhpZYvMnuUi8Xo-24" target="L7cZjmXhpZYvMnuUi8Xo-19" edge="1">
          <mxGeometry relative="1" as="geometry">
            <Array as="points">
              <mxPoint x="145" y="600" />
              <mxPoint x="100" y="600" />
            </Array>
          </mxGeometry>
        </mxCell>
        <mxCell id="L7cZjmXhpZYvMnuUi8Xo-24" value="工程师" style="shape=umlActor;verticalLabelPosition=bottom;verticalAlign=top;html=1;outlineConnect=0;" parent="L7cZjmXhpZYvMnuUi8Xo-1" vertex="1">
          <mxGeometry x="130" y="605" width="30" height="60" as="geometry" />
        </mxCell>
        <mxCell id="L7cZjmXhpZYvMnuUi8Xo-30" value="产生了多少结果：两个队列&lt;br&gt;新需要的有多少：医嘱" style="rounded=0;whiteSpace=wrap;html=1;" parent="L7cZjmXhpZYvMnuUi8Xo-1" vertex="1">
          <mxGeometry x="650" y="520" width="160" height="60" as="geometry" />
        </mxCell>
      </root>
    </mxGraphModel>
  </diagram>
  <diagram id="XbCc64ss0K2OMkLWAqUx" name="Page-3">
    <mxGraphModel dx="1038" dy="580" grid="1" gridSize="10" guides="1" tooltips="1" connect="1" arrows="1" fold="1" page="1" pageScale="1" pageWidth="827" pageHeight="1169" math="0" shadow="0">
      <root>
        <mxCell id="hNZq27Qqe17-G8iNRurC-0" />
        <mxCell id="hNZq27Qqe17-G8iNRurC-1" parent="hNZq27Qqe17-G8iNRurC-0" />
        <mxCell id="hNZq27Qqe17-G8iNRurC-6" style="edgeStyle=orthogonalEdgeStyle;rounded=0;orthogonalLoop=1;jettySize=auto;html=1;exitX=1;exitY=0.5;exitDx=0;exitDy=0;" edge="1" parent="hNZq27Qqe17-G8iNRurC-1" source="hNZq27Qqe17-G8iNRurC-2" target="hNZq27Qqe17-G8iNRurC-5">
          <mxGeometry relative="1" as="geometry" />
        </mxCell>
        <mxCell id="hNZq27Qqe17-G8iNRurC-13" style="edgeStyle=orthogonalEdgeStyle;rounded=0;orthogonalLoop=1;jettySize=auto;html=1;exitX=0.5;exitY=1;exitDx=0;exitDy=0;entryX=0.5;entryY=0;entryDx=0;entryDy=0;" edge="1" parent="hNZq27Qqe17-G8iNRurC-1" source="hNZq27Qqe17-G8iNRurC-2" target="hNZq27Qqe17-G8iNRurC-12">
          <mxGeometry relative="1" as="geometry" />
        </mxCell>
        <mxCell id="hNZq27Qqe17-G8iNRurC-2" value="堡垒机:222.194.63.63:8080" style="rounded=0;whiteSpace=wrap;html=1;" vertex="1" parent="hNZq27Qqe17-G8iNRurC-1">
          <mxGeometry x="200" y="130" width="160" height="50" as="geometry" />
        </mxCell>
        <mxCell id="hNZq27Qqe17-G8iNRurC-4" style="edgeStyle=orthogonalEdgeStyle;rounded=0;orthogonalLoop=1;jettySize=auto;html=1;exitX=1;exitY=0.5;exitDx=0;exitDy=0;entryX=0;entryY=0.5;entryDx=0;entryDy=0;" edge="1" parent="hNZq27Qqe17-G8iNRurC-1" source="hNZq27Qqe17-G8iNRurC-3" target="hNZq27Qqe17-G8iNRurC-2">
          <mxGeometry relative="1" as="geometry" />
        </mxCell>
        <mxCell id="hNZq27Qqe17-G8iNRurC-3" value="在家" style="rounded=0;whiteSpace=wrap;html=1;" vertex="1" parent="hNZq27Qqe17-G8iNRurC-1">
          <mxGeometry x="40" y="135" width="80" height="40" as="geometry" />
        </mxCell>
        <mxCell id="hNZq27Qqe17-G8iNRurC-8" style="edgeStyle=orthogonalEdgeStyle;rounded=0;orthogonalLoop=1;jettySize=auto;html=1;exitX=1;exitY=0.5;exitDx=0;exitDy=0;" edge="1" parent="hNZq27Qqe17-G8iNRurC-1" source="hNZq27Qqe17-G8iNRurC-5" target="hNZq27Qqe17-G8iNRurC-7">
          <mxGeometry relative="1" as="geometry" />
        </mxCell>
        <mxCell id="hNZq27Qqe17-G8iNRurC-10" style="edgeStyle=orthogonalEdgeStyle;rounded=0;orthogonalLoop=1;jettySize=auto;html=1;exitX=0.5;exitY=1;exitDx=0;exitDy=0;entryX=0.5;entryY=0;entryDx=0;entryDy=0;" edge="1" parent="hNZq27Qqe17-G8iNRurC-1" source="hNZq27Qqe17-G8iNRurC-5" target="hNZq27Qqe17-G8iNRurC-9">
          <mxGeometry relative="1" as="geometry" />
        </mxCell>
        <mxCell id="hNZq27Qqe17-G8iNRurC-5" value="windows(浏览器)" style="rounded=0;whiteSpace=wrap;html=1;" vertex="1" parent="hNZq27Qqe17-G8iNRurC-1">
          <mxGeometry x="460" y="130" width="120" height="50" as="geometry" />
        </mxCell>
        <mxCell id="hNZq27Qqe17-G8iNRurC-7" value="计算服务器" style="rounded=0;whiteSpace=wrap;html=1;" vertex="1" parent="hNZq27Qqe17-G8iNRurC-1">
          <mxGeometry x="690" y="130" width="120" height="50" as="geometry" />
        </mxCell>
        <mxCell id="hNZq27Qqe17-G8iNRurC-9" value="团队服务器,黑色&lt;br&gt;(刘泽创建)" style="rounded=0;whiteSpace=wrap;html=1;" vertex="1" parent="hNZq27Qqe17-G8iNRurC-1">
          <mxGeometry x="460" y="250" width="120" height="60" as="geometry" />
        </mxCell>
        <mxCell id="hNZq27Qqe17-G8iNRurC-14" style="edgeStyle=orthogonalEdgeStyle;rounded=0;orthogonalLoop=1;jettySize=auto;html=1;exitX=0.5;exitY=0;exitDx=0;exitDy=0;entryX=0.5;entryY=1;entryDx=0;entryDy=0;" edge="1" parent="hNZq27Qqe17-G8iNRurC-1" source="hNZq27Qqe17-G8iNRurC-11" target="hNZq27Qqe17-G8iNRurC-9">
          <mxGeometry relative="1" as="geometry" />
        </mxCell>
        <mxCell id="hNZq27Qqe17-G8iNRurC-11" value="R文件" style="rounded=0;whiteSpace=wrap;html=1;" vertex="1" parent="hNZq27Qqe17-G8iNRurC-1">
          <mxGeometry x="460" y="370" width="120" height="50" as="geometry" />
        </mxCell>
        <mxCell id="hNZq27Qqe17-G8iNRurC-15" style="edgeStyle=orthogonalEdgeStyle;rounded=0;orthogonalLoop=1;jettySize=auto;html=1;exitX=1;exitY=0.5;exitDx=0;exitDy=0;entryX=0;entryY=0.5;entryDx=0;entryDy=0;" edge="1" parent="hNZq27Qqe17-G8iNRurC-1" source="hNZq27Qqe17-G8iNRurC-12" target="hNZq27Qqe17-G8iNRurC-11">
          <mxGeometry relative="1" as="geometry" />
        </mxCell>
        <mxCell id="hNZq27Qqe17-G8iNRurC-12" value="登录平台" style="rounded=0;whiteSpace=wrap;html=1;" vertex="1" parent="hNZq27Qqe17-G8iNRurC-1">
          <mxGeometry x="220" y="370" width="120" height="50" as="geometry" />
        </mxCell>
        <mxCell id="hNZq27Qqe17-G8iNRurC-17" style="edgeStyle=orthogonalEdgeStyle;rounded=0;orthogonalLoop=1;jettySize=auto;html=1;exitX=1;exitY=0.5;exitDx=0;exitDy=0;" edge="1" parent="hNZq27Qqe17-G8iNRurC-1" source="hNZq27Qqe17-G8iNRurC-16" target="hNZq27Qqe17-G8iNRurC-9">
          <mxGeometry relative="1" as="geometry" />
        </mxCell>
        <mxCell id="hNZq27Qqe17-G8iNRurC-16" value="研究院" style="rounded=0;whiteSpace=wrap;html=1;" vertex="1" parent="hNZq27Qqe17-G8iNRurC-1">
          <mxGeometry x="330" y="260" width="80" height="40" as="geometry" />
        </mxCell>
      </root>
    </mxGraphModel>
  </diagram>
</mxfile>
